<svg width="227" height="60" viewBox="0 0 227 60" fill="none" xmlns="http://www.w3.org/2000/svg">
<g clip-path="url(#clip0_1_406)">
<path d="M7.12355 31.639V35.2812H15.9361V40.7071H7.12355V47.4773H0V26.2454H17.1722V31.639H7.12355Z" fill="#82BC00"/>
<path d="M24.2318 46.5344C22.464 45.6182 20.9813 44.2304 19.9461 42.5232C18.911 40.816 18.3634 38.8552 18.3634 36.8558C18.3634 34.8564 18.911 32.8956 19.9461 31.1883C20.9813 29.4811 22.464 28.0933 24.2318 27.1771C26.1311 26.205 28.2386 25.7158 30.3697 25.7524C32.4971 25.7176 34.6007 26.2067 36.4969 27.1771C38.2662 28.092 39.7506 29.4793 40.7869 31.1867C41.8233 32.8941 42.3716 34.8556 42.3716 36.8558C42.3716 38.8559 41.8233 40.8174 40.7869 42.5249C39.7506 44.2323 38.2662 45.6196 36.4969 46.5344C34.6007 47.5048 32.4971 47.994 30.3697 47.9591C28.2386 47.9957 26.1311 47.5065 24.2318 46.5344ZM32.7566 41.5157C33.4823 41.068 34.072 40.4288 34.4616 39.6678C34.8783 38.7914 35.0946 37.8324 35.0946 36.8611C35.0946 35.8898 34.8783 34.9308 34.4616 34.0545C34.0718 33.2936 33.4821 32.6545 32.7566 32.2066C32.0287 31.7803 31.2014 31.5558 30.359 31.5558C29.5166 31.5558 28.6893 31.7803 27.9614 32.2066C27.2357 32.6543 26.646 33.2934 26.2564 34.0545C25.839 34.9306 25.6223 35.8897 25.6223 36.8611C25.6223 37.8326 25.839 38.7916 26.2564 39.6678C26.6458 40.429 27.2355 41.0682 27.9614 41.5157C28.6893 41.9419 29.5166 42.1665 30.359 42.1665C31.2014 42.1665 32.0287 41.9419 32.7566 41.5157Z" fill="#82BC00"/>
<path d="M49.8222 46.5345C48.0545 45.6183 46.5717 44.2305 45.5366 42.5233C44.5014 40.8161 43.9539 38.8553 43.9539 36.8559C43.9539 34.8565 44.5014 32.8957 45.5366 31.1884C46.5717 29.4812 48.0545 28.0934 49.8222 27.1772C51.7299 26.2387 53.8256 25.7507 55.9495 25.7507C58.0733 25.7507 60.1691 26.2387 62.0767 27.1772C63.846 28.0921 65.3304 29.4794 66.3667 31.1868C67.4031 32.8942 67.9514 34.8557 67.9514 36.8559C67.9514 38.856 67.4031 40.8175 66.3667 42.5249C65.3304 44.2324 63.846 45.6197 62.0767 46.5345C60.1689 47.4727 58.0732 47.9604 55.9495 47.9604C53.8257 47.9604 51.73 47.4727 49.8222 46.5345ZM58.3471 41.5158C59.0727 41.0681 59.6624 40.4289 60.052 39.6679C60.4687 38.7915 60.685 37.8325 60.685 36.8612C60.685 35.8899 60.4687 34.9309 60.052 34.0546C59.6622 33.2937 59.0726 32.6546 58.3471 32.2067C57.6192 31.7804 56.7919 31.5559 55.9495 31.5559C55.1071 31.5559 54.2797 31.7804 53.5519 32.2067C52.8262 32.6544 52.2365 33.2935 51.8469 34.0546C51.4294 34.9307 51.2127 35.8898 51.2127 36.8612C51.2127 37.8327 51.4294 38.7917 51.8469 39.6679C52.2362 40.4291 52.826 41.0683 53.5519 41.5158C54.2797 41.942 55.1071 42.1666 55.9495 42.1666C56.7919 42.1666 57.6192 41.942 58.3471 41.5158Z" fill="#82BC00"/>
<path d="M70.463 26.2453H80.8739C83.0216 26.2023 85.1517 26.6434 87.1077 27.5361C88.8316 28.3293 90.2885 29.6097 91.3008 31.2212C92.323 32.9197 92.8407 34.8767 92.7927 36.8613C92.841 38.8459 92.3233 40.8029 91.3008 42.5013C90.289 44.1132 88.8319 45.3937 87.1077 46.1864C85.1517 47.0792 83.0216 47.5202 80.8739 47.4772H70.463V26.2453ZM80.5862 41.9014C81.2533 41.9347 81.9205 41.8355 82.5495 41.6094C83.1785 41.3833 83.7569 41.0348 84.2519 40.5838C84.726 40.0947 85.0932 39.5114 85.3299 38.8712C85.5666 38.2311 85.6676 37.5483 85.6265 36.8666C85.6676 36.1849 85.5666 35.5021 85.3299 34.862C85.0932 34.2219 84.726 33.6385 84.2519 33.1494C83.7569 32.6984 83.1785 32.3499 82.5495 32.1238C81.9205 31.8978 81.2533 31.7985 80.5862 31.8318H77.5972V41.9014H80.5862Z" fill="#82BC00"/>
<path d="M95.8136 30.8893C95.8136 30.8893 96.9805 31.8587 97.4121 32.1266C97.9887 32.4744 98.6482 32.6591 99.3207 32.6609C99.9932 32.6628 100.654 32.4819 101.232 32.1373C101.658 31.8695 102.831 30.9 102.831 30.9C102.863 30.8847 102.899 30.8779 102.934 30.8801C102.97 30.8823 103.005 30.8936 103.035 30.9128C103.065 30.932 103.09 30.9586 103.108 30.99C103.125 31.0215 103.134 31.0568 103.134 31.0928L102.298 47.2578C102.298 47.3146 102.275 47.3691 102.235 47.4093C102.195 47.4495 102.141 47.472 102.085 47.472H96.5436C96.4871 47.472 96.4329 47.4495 96.3929 47.4093C96.3529 47.3691 96.3305 47.3146 96.3305 47.2578L95.5099 31.066C95.5127 31.0314 95.5237 30.998 95.5421 30.9687C95.5605 30.9393 95.5858 30.9149 95.6156 30.8975C95.6455 30.8801 95.6791 30.8703 95.7136 30.8688C95.7481 30.8674 95.7825 30.8744 95.8136 30.8893Z" fill="#EE7700"/>
<path d="M106.795 25.9668H114.02V41.8532H123.679V47.4772H106.795V25.9668Z" fill="#EE7700"/>
<path d="M126.7 25.9883H133.909V47.4773H126.7V25.9883Z" fill="#EE7700"/>
<path d="M146.089 40.3536L144.49 42.164V47.4773H137.404V25.9883H144.49V33.7869L151.513 25.9883H159.361L150.783 35.442L159.761 47.4773H151.433L146.089 40.3536Z" fill="#EE7700"/>
<path d="M178.52 42.014V47.4773H160.746V25.9883H178.121V31.4516H167.832V33.969H176.89V39.1859H167.832V42.0086L178.52 42.014Z" fill="#EE7700"/>
<path d="M3.44721 58.5484V58.8752H0.0585938V53.9368H3.34065V54.2635H0.420899V56.2078H3.03162V56.5238H0.420899V58.5484H3.44721Z" fill="#3E4543"/>
<path d="M9.00433 58.5485V59.9893H8.66334V58.8645H4.17715V59.9893H3.8255V58.5377H4.0919C4.41513 58.5092 4.64069 58.236 4.76856 57.7183C4.91951 57.005 4.99805 56.2782 5.00299 55.549L5.05094 53.9421H8.24775V58.5485H9.00433ZM5.15218 57.5469C5.12043 57.931 4.94531 58.2888 4.662 58.5485H7.88545V54.2635H5.38128L5.328 55.5865C5.31731 56.2434 5.25854 56.8986 5.15218 57.5469Z" fill="#3E4543"/>
<path d="M13.2614 57.4826H10.4162L9.79286 58.8698H9.40924L11.6683 53.9368H12.0253L14.2844 58.8698H13.9008L13.2614 57.4826ZM13.1282 57.1773L11.8388 54.3278L10.5548 57.1773H13.1282Z" fill="#3E4543"/>
<path d="M18.6481 56.5345H17.4493V58.8752H17.0923V53.9368H17.4493V56.2078H18.6481L20.4063 53.9368H20.7793L18.8985 56.3417L20.9018 58.8698H20.4809L18.6481 56.5345Z" fill="#3E4543"/>
<path d="M22.5907 58.5806C22.2099 58.3695 21.8932 58.0585 21.6743 57.6807C21.4563 57.2916 21.3418 56.8525 21.3418 56.406C21.3418 55.9594 21.4563 55.5203 21.6743 55.1312C21.8932 54.7534 22.2099 54.4424 22.5907 54.2313C22.9902 54.0101 23.4401 53.8975 23.8961 53.9046C24.3514 53.8978 24.8008 54.0085 25.2015 54.226C25.5783 54.4363 25.8914 54.7454 26.1072 55.1205C26.3251 55.5125 26.4396 55.9542 26.4396 56.4033C26.4396 56.8524 26.3251 57.294 26.1072 57.6861C25.8885 58.0626 25.5716 58.3719 25.1908 58.5806C24.7902 58.7981 24.3407 58.9087 23.8855 58.9019C23.4335 58.9088 22.9875 58.7981 22.5907 58.5806ZM25.0097 58.2967C25.3357 58.1137 25.6064 57.8453 25.7929 57.52C25.9809 57.1811 26.0796 56.7994 26.0796 56.4113C26.0796 56.0232 25.9809 55.6415 25.7929 55.3026C25.6064 54.9773 25.3357 54.7089 25.0097 54.5259C24.6664 54.3407 24.283 54.2438 23.8934 54.2438C23.5039 54.2438 23.1204 54.3407 22.7772 54.5259C22.4489 54.7077 22.1762 54.9763 21.9887 55.3026C21.8006 55.6415 21.7019 56.0232 21.7019 56.4113C21.7019 56.7994 21.8006 57.1811 21.9887 57.52C22.1762 57.8463 22.4489 58.1149 22.7772 58.2967C23.1204 58.4819 23.5039 58.5788 23.8934 58.5788C24.283 58.5788 24.6664 58.4819 25.0097 58.2967Z" fill="#3E4543"/>
<path d="M30.7746 54.2635H29.0111V58.8698H28.6541V54.2635H26.8852V53.9368H30.7746V54.2635Z" fill="#3E4543"/>
<path d="M32.4582 58.5806C32.0774 58.3695 31.7607 58.0585 31.5418 57.6807C31.3238 57.2916 31.2093 56.8525 31.2093 56.406C31.2093 55.9594 31.3238 55.5203 31.5418 55.1312C31.7607 54.7534 32.0774 54.4424 32.4582 54.2313C32.8577 54.0101 33.3076 53.8975 33.7636 53.9046C34.2189 53.8978 34.6683 54.0085 35.069 54.226C35.4498 54.4347 35.7666 54.744 35.9854 55.1205C36.2033 55.5125 36.3177 55.9542 36.3177 56.4033C36.3177 56.8524 36.2033 57.294 35.9854 57.6861C35.7666 58.0626 35.4498 58.3719 35.069 58.5806C34.6683 58.7981 34.2189 58.9087 33.7636 58.9019C33.3081 58.9107 32.8582 58.7999 32.4582 58.5806ZM34.8772 58.2967C35.2032 58.1137 35.4739 57.8453 35.6604 57.52C35.8484 57.1811 35.9471 56.7994 35.9471 56.4113C35.9471 56.0232 35.8484 55.6415 35.6604 55.3026C35.4739 54.9773 35.2032 54.7089 34.8772 54.5259C34.5339 54.3407 34.1505 54.2438 33.7609 54.2438C33.3714 54.2438 32.9879 54.3407 32.6447 54.5259C32.3164 54.7077 32.0437 54.9763 31.8562 55.3026C31.6681 55.6415 31.5694 56.0232 31.5694 56.4113C31.5694 56.7994 31.6681 57.1811 31.8562 57.52C32.0437 57.8463 32.3164 58.1149 32.6447 58.2967C32.9879 58.4819 33.3714 58.5788 33.7609 58.5788C34.1505 58.5788 34.5339 58.4819 34.8772 58.2967Z" fill="#3E4543"/>
<path d="M40.8499 54.3813C41.0155 54.5376 41.1475 54.7264 41.2378 54.936C41.328 55.1455 41.3746 55.3715 41.3746 55.5999C41.3746 55.8282 41.328 56.0542 41.2378 56.2638C41.1475 56.4734 41.0155 56.6621 40.8499 56.8184C40.4337 57.1325 39.9202 57.2881 39.4007 57.2576H37.9941V58.8645H37.6371V53.9368H39.3953C39.9173 53.9065 40.433 54.0641 40.8499 54.3813ZM40.5995 56.5881C40.7304 56.4594 40.8345 56.3057 40.9056 56.136C40.9766 55.9663 41.0132 55.784 41.0132 55.5999C41.0132 55.4157 40.9766 55.2335 40.9056 55.0638C40.8345 54.8941 40.7304 54.7404 40.5995 54.6117C40.2533 54.357 39.8286 54.2336 39.4007 54.2635H37.9941V56.9416H39.3953C39.8238 56.9685 40.248 56.8434 40.5941 56.5881H40.5995Z" fill="#3E4543"/>
<path d="M45.3787 57.4826H42.5282L41.9048 58.8698H41.5212L43.7803 53.9368H44.1372L46.3963 58.8698H46.0127L45.3787 57.4826ZM45.2455 57.1773L43.9561 54.3278L42.672 57.1773H45.2455Z" fill="#3E4543"/>
<path d="M50.5575 53.9368V58.8698H50.2005V57.3112H48.6341C48.5187 57.3187 48.4031 57.3187 48.2877 57.3112L47.2221 58.8805H46.8385L47.9521 57.2362C47.6194 57.1583 47.3227 56.9695 47.1102 56.7006C46.9061 56.4019 46.8033 56.045 46.8172 55.6829C46.8068 55.4448 46.8492 55.2074 46.9414 54.9879C47.0336 54.7683 47.1731 54.5721 47.35 54.4135C47.7368 54.0972 48.2268 53.9368 48.7246 53.9636L50.5575 53.9368ZM47.5631 56.6577C47.8753 56.9112 48.2709 57.0374 48.6714 57.0112H50.2005V54.2635H48.7353C48.3232 54.2361 47.9156 54.3619 47.5898 54.617C47.3382 54.8967 47.1989 55.2603 47.1989 55.6374C47.1989 56.0144 47.3382 56.3781 47.5898 56.6577H47.5631Z" fill="#3E4543"/>
<path d="M58.118 53.9368V58.8698H57.761V56.5238H54.4789V58.8698H54.1219V53.9368H54.4789V56.2078H57.761V53.9368H58.118Z" fill="#3E4543"/>
<path d="M63.0943 54.3813C63.26 54.5376 63.392 54.7263 63.4822 54.9359C63.5725 55.1455 63.619 55.3715 63.619 55.5998C63.619 55.8282 63.5725 56.0542 63.4822 56.2637C63.392 56.4733 63.26 56.6621 63.0943 56.8184C62.6781 57.1324 62.1646 57.288 61.6451 57.2576H60.2438V58.8644H59.8868V53.9367H61.6451C62.1653 53.9078 62.6788 54.0653 63.0943 54.3813ZM62.8439 56.588C62.9749 56.4593 63.0789 56.3056 63.15 56.1359C63.221 55.9662 63.2576 55.784 63.2576 55.5998C63.2576 55.4157 63.221 55.2334 63.15 55.0637C63.0789 54.894 62.9749 54.7403 62.8439 54.6116C62.4977 54.3569 62.073 54.2336 61.6451 54.2635H60.2438V56.9415H61.6451C62.0735 56.9685 62.4978 56.8434 62.8439 56.588Z" fill="#3E4543"/>
<path d="M67.6232 57.4826H64.778L64.1547 58.8698H63.7711L66.0301 53.9368H66.3871L68.6462 58.8698H68.2626L67.6232 57.4826ZM67.49 57.1773L66.2006 54.3278L64.9166 57.1773H67.49Z" fill="#3E4543"/>
<path d="M73.2442 56.738C73.437 56.9679 73.536 57.2626 73.5213 57.5629C73.5321 57.7493 73.4975 57.9355 73.4204 58.1054C73.3434 58.2753 73.2262 58.4237 73.0791 58.5377C72.6902 58.7903 72.2301 58.9087 71.7684 58.8751H69.6371V53.9367H71.6138C72.0398 53.9117 72.4623 54.0264 72.818 54.2634C72.9619 54.3699 73.0768 54.5111 73.1522 54.674C73.2277 54.8368 73.2611 55.0162 73.2495 55.1954C73.2582 55.4533 73.1793 55.7064 73.0258 55.9131C72.8649 56.1138 72.6477 56.2613 72.4024 56.3363C72.7211 56.3671 73.019 56.5093 73.2442 56.738ZM70.0154 56.2024H71.6138C71.9489 56.225 72.282 56.1366 72.5622 55.9506C72.6657 55.8582 72.7484 55.7447 72.8051 55.6178C72.8618 55.4909 72.8911 55.3533 72.8911 55.2142C72.8911 55.075 72.8618 54.9375 72.8051 54.8105C72.7484 54.6836 72.6657 54.5701 72.5622 54.4777C72.282 54.2917 71.9489 54.2033 71.6138 54.2259H70.0154V56.2024ZM73.1643 57.52C73.1762 57.3712 73.1501 57.2218 73.0886 57.0859C73.0271 56.95 72.9321 56.8321 72.8126 56.7434C72.4988 56.5582 72.1368 56.4723 71.7737 56.497H70.0154V58.5484H71.7737C72.6972 58.5627 73.159 58.227 73.159 57.5414L73.1643 57.52Z" fill="#3E4543"/>
<path d="M74.9119 53.9368H75.2688V58.2646L78.6148 53.9368H78.9292V58.8698H78.5722V54.5527L75.2315 58.8698H74.9172L74.9119 53.9368Z" fill="#3E4543"/>
<path d="M83.7724 54.2635H82.0088V58.8698H81.6518V54.2635H79.8829V53.9368H83.7724V54.2635Z" fill="#3E4543"/>
<path d="M85.4613 58.5806C85.0825 58.3711 84.7675 58.0619 84.5502 57.6861C84.3318 57.2942 84.2171 56.8525 84.2171 56.4033C84.2171 55.9541 84.3318 55.5124 84.5502 55.1205C84.7677 54.7449 85.0826 54.4357 85.4613 54.226C85.8598 54.0078 86.3077 53.8971 86.7613 53.9047C87.0958 53.9008 87.4282 53.9589 87.7417 54.0761C88.0335 54.1928 88.2944 54.3761 88.5036 54.6117L88.2798 54.842C88.0807 54.6474 87.8445 54.4953 87.5853 54.395C87.3262 54.2946 87.0495 54.2481 86.772 54.2582C86.3791 54.2534 85.9918 54.3512 85.6478 54.542C85.3173 54.7228 85.0427 54.9915 84.8539 55.3187C84.6659 55.6577 84.5672 56.0393 84.5672 56.4274C84.5672 56.8155 84.6659 57.1972 84.8539 57.5362C85.0427 57.8633 85.3173 58.132 85.6478 58.3128C85.9917 58.5039 86.3791 58.6017 86.772 58.5967C87.0499 58.606 87.3268 58.5587 87.586 58.4574C87.8451 58.3561 88.0812 58.2031 88.2798 58.0075L88.5036 58.2378C88.2921 58.4732 88.0296 58.6564 87.7364 58.7734C87.4252 58.8931 87.0945 58.9531 86.7613 58.9502C86.3033 58.9431 85.8552 58.8157 85.4613 58.5806Z" fill="#3E4543"/>
<path d="M92.8939 53.9368V58.8698H92.5369V57.3112H90.9758C90.8605 57.3187 90.7448 57.3187 90.6295 57.3112L89.5639 58.8805H89.1803L90.3152 57.2469C89.9825 57.169 89.6858 56.9802 89.4733 56.7113C89.2692 56.4126 89.1664 56.0557 89.1803 55.6936C89.1699 55.4555 89.2123 55.2181 89.3045 54.9986C89.3966 54.779 89.5362 54.5828 89.7131 54.4242C90.0999 54.1079 90.5899 53.9475 91.0877 53.9743L92.8939 53.9368ZM89.8996 56.6577C90.2117 56.9112 90.6074 57.0374 91.0078 57.0112H92.5369V54.2635H91.0717C90.6597 54.2361 90.252 54.3619 89.9262 54.617C89.6746 54.8967 89.5353 55.2603 89.5353 55.6374C89.5353 56.0144 89.6746 56.3781 89.9262 56.6577H89.8996Z" fill="#3E4543"/>
<path d="M95.5099 56.3792H178.52" stroke="#82BC00" stroke-width="3" stroke-miterlimit="10"/>
<path d="M99.3142 30.916C101.415 30.916 103.118 29.2038 103.118 27.0917C103.118 24.9795 101.415 23.2673 99.3142 23.2673C97.2131 23.2673 95.5099 24.9795 95.5099 27.0917C95.5099 29.2038 97.2131 30.916 99.3142 30.916Z" fill="#EE7700"/>
<path d="M206.727 47.622C206.988 47.622 207.02 47.7023 206.919 48.0291C206.524 49.2646 206.123 50.4965 205.715 51.7248C205.695 51.8004 205.659 51.8707 205.61 51.931C205.561 51.9912 205.499 52.0398 205.429 52.0735C205.359 52.1072 205.282 52.1251 205.205 52.1259C205.127 52.1267 205.05 52.1105 204.979 52.0783C204.91 52.0528 204.846 52.0128 204.792 51.9611C204.739 51.9093 204.697 51.8469 204.669 51.7778C204.641 51.7087 204.627 51.6345 204.629 51.5599C204.631 51.4853 204.649 51.4119 204.681 51.3445C205.036 50.2733 205.377 49.2021 205.704 48.1308C205.832 47.7238 205.864 47.622 206.119 47.5952H203.2C203.392 47.5952 203.45 47.7291 203.381 47.9487C203.168 48.6022 202.955 49.2503 202.758 49.9037C202.538 50.4271 202.404 50.9821 202.358 51.5481C202.358 51.9985 202.466 52.4424 202.671 52.8428C202.876 53.2432 203.174 53.5887 203.538 53.8505C203.903 54.1123 204.324 54.283 204.768 54.3483C205.211 54.4137 205.663 54.3718 206.088 54.2262C206.485 54.0964 206.846 53.8747 207.142 53.5788C207.438 53.283 207.661 52.9213 207.792 52.5229C208.325 51.0553 208.773 49.5609 209.226 48.0719C209.311 47.788 209.434 47.6541 209.679 47.622H206.727Z" fill="#82BC00"/>
<path d="M217.228 23.3798C217.458 22.5436 217.916 21.7886 218.55 21.1998C218.806 20.9722 219.074 20.7594 219.354 20.5624C222.194 19.5983 224.837 16.8988 226.164 13.1977C228.162 7.6165 226.425 1.85861 222.29 0.342804C218.155 -1.173 213.158 2.16391 211.16 7.7397C209.854 11.3765 210.147 15.083 211.65 17.6433C211.819 18.0826 211.956 18.5337 212.06 18.993C212.212 19.6286 212.212 20.2911 212.06 20.9266C211.73 22.1318 211.309 23.3155 210.941 24.5099C210.919 24.6324 210.852 24.7422 210.754 24.8175C210.655 24.8929 210.532 24.9284 210.409 24.917H217.042C216.797 24.8741 216.754 24.7992 216.861 24.5421C217.003 24.1613 217.126 23.7733 217.228 23.3798ZM215.678 21.2373C215.234 22.1639 214.877 23.1305 214.612 24.1243C214.282 25.1045 214.421 24.9009 213.478 24.9277H213.408C213.259 24.9277 213.195 24.8902 213.254 24.7188C213.499 23.9904 213.744 23.2619 213.968 22.5281C214.202 21.8109 214.35 21.0684 214.41 20.316C214.887 20.5701 215.398 20.7506 215.928 20.8516C215.843 20.9695 215.758 21.1034 215.678 21.2426V21.2373ZM215.801 18.4628C212.833 17.3915 211.703 12.9298 213.28 8.52706C214.623 4.77773 217.511 2.25496 220.169 2.25496C220.633 2.25357 221.092 2.33333 221.528 2.49063C224.496 3.56187 225.625 8.02358 224.048 12.4264C222.471 16.8291 218.768 19.5394 215.785 18.4628H215.801Z" fill="#8EBF25"/>
<path d="M218.832 25.4954C218.285 25.194 217.68 25.0115 217.058 24.9598H207.063C206.636 24.9598 206.594 24.8955 206.732 24.4777C206.871 24.06 207.041 23.5618 207.19 23.1012C207.526 22.03 207.84 20.9587 208.203 19.9303C208.596 18.8638 208.818 17.7409 208.858 16.6041C208.858 15.6347 208.858 14.6598 208.858 13.6904C208.881 13.0062 208.749 12.3258 208.472 11.7005C208.195 11.0751 207.781 10.5211 207.26 10.0803C206.77 9.59941 206.171 9.24679 205.514 9.05346C204.857 8.86013 204.163 8.83201 203.493 8.97158C202.807 9.0905 202.187 9.45588 201.749 9.99973C201.311 10.5436 201.084 11.2289 201.111 11.9282C201.111 12.5924 201.111 13.2565 201.111 13.9207C201.13 15.711 200.458 17.4391 199.236 18.7413C197.904 20.1928 196.62 21.6872 195.314 23.1655C194.142 24.5045 192.974 25.8275 191.809 27.1344C191.659 27.3058 191.601 27.3004 191.51 27.0755C191.447 26.769 191.268 26.4992 191.01 26.3232C190.752 26.1473 190.437 26.079 190.13 26.1328C188.447 26.1328 186.758 26.1703 185.074 26.1328C184.897 26.1291 184.722 26.1615 184.558 26.2283C184.394 26.295 184.246 26.3945 184.122 26.5208C183.998 26.6472 183.9 26.7976 183.836 26.9629C183.772 27.1283 183.741 27.3051 183.747 27.4826C183.779 32.4102 183.747 37.3379 183.747 42.2656C183.747 42.3728 183.747 42.4799 183.747 42.587C183.762 42.8389 183.865 43.0774 184.037 43.2607C184.21 43.4439 184.441 43.56 184.69 43.5886C184.86 43.6131 185.032 43.5998 185.196 43.5499C185.359 43.4999 185.51 43.4144 185.637 43.2994C185.764 43.1845 185.864 43.0428 185.931 42.8845C185.998 42.7263 186.029 42.5552 186.022 42.3835C186.022 37.895 186.022 33.4047 186.022 28.9127C186.022 28.436 186.022 28.4306 186.491 28.4306C187.258 28.4306 188.026 28.4306 188.788 28.4306C189.134 28.4306 189.256 28.5217 189.256 28.8859C189.256 34.2421 189.256 39.584 189.256 44.9116C189.256 45.2544 189.144 45.3615 188.809 45.3561C187.605 45.3561 186.406 45.3561 185.202 45.3561C185.002 45.3544 184.802 45.3724 184.605 45.4097C184.385 45.4584 184.186 45.5731 184.032 45.7387C183.879 45.9042 183.78 46.1126 183.747 46.3363C183.716 46.5789 183.762 46.8252 183.879 47.0398C183.996 47.2544 184.177 47.4263 184.397 47.5308C184.673 47.6329 184.97 47.6642 185.26 47.6218C186.907 47.6218 188.558 47.6218 190.205 47.6218C190.382 47.6383 190.561 47.6153 190.729 47.5543C190.897 47.4934 191.049 47.3961 191.175 47.2693C191.302 47.1425 191.398 46.9893 191.459 46.8207C191.52 46.652 191.543 46.472 191.526 46.2935C191.526 44.3867 191.526 42.4817 191.526 40.5784C191.526 37.4861 191.526 34.3938 191.526 31.3015C191.514 31.0053 191.619 30.7163 191.819 30.4981C193.137 29.0162 194.451 27.5308 195.762 26.0417C197.595 23.9635 199.444 21.8907 201.26 19.7964C202.357 18.5294 203.047 16.9596 203.242 15.2919C203.348 14.1955 203.379 13.0931 203.333 11.9925C203.331 11.8781 203.352 11.7646 203.395 11.6589C203.439 11.5533 203.504 11.4579 203.586 11.3788C203.668 11.2997 203.766 11.2387 203.873 11.1996C203.979 11.1604 204.093 11.1441 204.207 11.1515C204.829 11.1677 205.421 11.4225 205.862 11.8638C206.303 12.305 206.559 12.8992 206.578 13.5243C206.777 15.897 206.465 18.285 205.661 20.5249C205.006 22.3085 204.484 24.1403 203.903 25.9507C203.861 26.0739 203.861 26.2078 203.903 26.331C203.963 26.6069 204.124 26.8501 204.354 27.0126C204.584 27.1752 204.866 27.2454 205.145 27.2094H215.609C216.019 27.2094 216.435 27.2094 216.845 27.2094C217.112 27.1937 217.378 27.2562 217.611 27.3893C217.843 27.5224 218.032 27.7203 218.156 27.9593C218.282 28.1752 218.348 28.4219 218.345 28.6727C218.343 28.9234 218.272 29.1687 218.141 29.3821C218.01 29.5955 217.824 29.7688 217.602 29.8833C217.38 29.9979 217.131 30.0493 216.882 30.0321C216.565 30.0291 216.248 30.0506 215.934 30.0964C215.78 30.1227 215.635 30.1848 215.511 30.2779C215.386 30.3709 215.284 30.4922 215.214 30.632C214.767 31.4408 215.273 32.271 216.28 32.3406C216.602 32.3522 216.911 32.4757 217.153 32.69C217.395 32.9044 217.556 33.1963 217.608 33.5163C217.66 33.8363 217.6 34.1645 217.439 34.4453C217.277 34.726 217.024 34.9419 216.722 35.0562C216.299 35.1617 215.862 35.1979 215.428 35.1633C215.226 35.1668 215.029 35.2248 214.857 35.3312C214.685 35.4377 214.545 35.5887 214.451 35.7685C214.357 35.9482 214.313 36.15 214.324 36.3526C214.335 36.5553 214.399 36.7513 214.511 36.9202C214.621 37.0835 214.768 37.2176 214.941 37.3109C215.114 37.4042 215.306 37.4539 215.502 37.4558C215.692 37.4602 215.879 37.5047 216.051 37.5865C216.222 37.6683 216.375 37.7855 216.499 37.9305C216.622 38.0755 216.714 38.2451 216.768 38.4281C216.822 38.6112 216.838 38.8036 216.813 38.993C216.801 39.1702 216.755 39.3434 216.676 39.5023C216.597 39.6612 216.488 39.8027 216.354 39.9185C216.22 40.0342 216.064 40.1219 215.896 40.1764C215.728 40.2308 215.55 40.251 215.374 40.2356C215.033 40.2063 214.689 40.2352 214.357 40.3213C214.105 40.3954 213.888 40.5566 213.744 40.7762C213.6 40.9958 213.537 41.2597 213.568 41.5211C213.594 41.7703 213.704 42.0031 213.879 42.1813C214.055 42.3594 214.285 42.4723 214.532 42.5013C214.741 42.5342 214.948 42.5807 215.151 42.6406C215.467 42.7433 215.734 42.9613 215.898 43.2517C216.063 43.5421 216.114 43.8839 216.04 44.2099C215.979 44.5526 215.791 44.8594 215.515 45.0689C215.238 45.2784 214.893 45.3753 214.548 45.3401H196.295C195.575 45.3401 194.856 45.3401 194.163 45.3776C194.015 45.381 193.868 45.4156 193.734 45.4793C193.599 45.5429 193.48 45.6342 193.382 45.7472C193.285 45.8602 193.212 45.9925 193.169 46.1354C193.125 46.2784 193.112 46.4289 193.13 46.5774C193.134 46.7223 193.166 46.865 193.226 46.9972C193.285 47.1295 193.369 47.2488 193.474 47.3483C193.579 47.4478 193.702 47.5255 193.837 47.577C193.972 47.6286 194.115 47.6529 194.259 47.6486C195.719 47.6861 197.179 47.6486 198.639 47.6486C200.099 47.6486 201.607 47.6486 203.093 47.6486C203.153 47.6382 203.214 47.6382 203.274 47.6486H206.04C206.171 47.6363 206.303 47.6363 206.434 47.6486H206.61C206.688 47.6413 206.766 47.6413 206.844 47.6486H209.625C209.705 47.6278 209.788 47.6188 209.87 47.6218C211.426 47.6218 212.982 47.6218 214.538 47.6218C215.139 47.6392 215.736 47.5058 216.274 47.2337C216.811 46.9616 217.273 46.5594 217.617 46.0632C217.996 45.5527 218.232 44.9504 218.302 44.3179C218.372 43.6854 218.274 43.0455 218.017 42.4638C217.926 42.2335 217.66 42.0674 217.66 41.8264C217.66 41.5854 217.98 41.4836 218.14 41.2908C218.67 40.7031 218.996 39.9582 219.069 39.168C219.142 38.3779 218.958 37.5853 218.544 36.9094C218.517 36.8796 218.496 36.8441 218.484 36.8054C218.472 36.7667 218.468 36.7257 218.473 36.6854C218.478 36.6451 218.492 36.6064 218.513 36.572C218.535 36.5376 218.564 36.5083 218.598 36.4863C219.239 35.9342 219.667 35.172 219.804 34.3343C219.942 33.4965 219.78 32.6368 219.349 31.9068C219.189 31.639 219.237 31.4997 219.456 31.2962C219.861 30.9065 220.172 30.4283 220.364 29.8987C220.557 29.369 220.625 28.802 220.565 28.2414C220.505 27.6809 220.317 27.1417 220.017 26.6655C219.716 26.1894 219.311 25.7891 218.832 25.4954Z" fill="#EE7700"/>
</g>
<defs>
<clipPath id="clip0_1_406">
<rect width="227" height="60" fill="white"/>
</clipPath>
</defs>
</svg>
